<svg width="32" height="32" fill="currentColor" viewBox="0 0 32 32" xmlns="http://www.w3.org/2000/svg">
<path d="M29 24C29 25.6569 27.6569 27 26 27C24.3431 27 23 25.6569 23 24C23 22.3431 24.3431 21 26 21C27.6569 21 29 22.3431 29 24Z" />
<path d="M8 9C8 10.6569 6.65685 12 5 12C3.34315 12 2 10.6569 2 9C2 7.34315 3.34315 6 5 6C6.65685 6 8 7.34315 8 9Z" />
<path d="M16 27C17.2018 27 18.3586 26.8073 19.4411 26.451C20.0883 28.182 21.401 29.5882 23.068 30.3582C20.9366 31.4094 18.5373 32 16 32C7.16344 32 0 24.8366 0 16C0 15.3295 0.0412423 14.6686 0.121328 14.0198C1.38207 15.2453 3.1029 16 5 16C5 22.0751 9.92487 27 16 27Z" />
<path d="M11.3416 6.03222C12.7562 5.36998 14.3349 5 16 5C22.0751 5 27 9.92487 27 16C27 16.3589 26.9828 16.7137 26.9492 17.0638C28.8232 17.3179 30.4616 18.3135 31.5592 19.7455C31.8474 18.5441 32 17.2899 32 16C32 7.16344 24.8366 0 16 0C12.8695 0 9.94902 0.899038 7.48261 2.45301C9.18676 3.09957 10.5728 4.39239 11.3416 6.03222Z" />
<path d="M14.3182 21.206C13.6222 21.206 13.0019 21.0852 12.4574 20.8438C11.9129 20.5975 11.482 20.2353 11.1648 19.7571C10.8523 19.2741 10.696 18.6728 10.696 17.9531C10.696 17.3471 10.8073 16.8381 11.0298 16.4261C11.2524 16.0142 11.5554 15.6828 11.9389 15.4318C12.3224 15.1809 12.758 14.9915 13.2457 14.8636C13.7382 14.7358 14.2543 14.6458 14.794 14.5938C15.4285 14.5275 15.9399 14.4659 16.3281 14.4091C16.7164 14.3475 16.9981 14.2576 17.1733 14.1392C17.3485 14.0208 17.4361 13.8456 17.4361 13.6136V13.571C17.4361 13.1212 17.294 12.7732 17.0099 12.527C16.7306 12.2808 16.3329 12.1577 15.8168 12.1577C15.2723 12.1577 14.839 12.2784 14.517 12.5199C14.1951 12.7566 13.982 13.0549 13.8778 13.4148L11.0795 13.1875C11.2216 12.5246 11.5009 11.9517 11.9176 11.4688C12.3343 10.9811 12.8717 10.607 13.5298 10.3466C14.1927 10.0814 14.9598 9.94886 15.831 9.94886C16.437 9.94886 17.017 10.0199 17.571 10.1619C18.1297 10.304 18.6245 10.5241 19.0554 10.8224C19.491 11.1207 19.8343 11.5043 20.0852 11.973C20.3362 12.437 20.4616 12.9934 20.4616 13.642V21H17.5923V19.4872H17.5071C17.3319 19.8281 17.0975 20.1288 16.804 20.3892C16.5104 20.6449 16.1577 20.8461 15.7457 20.9929C15.3338 21.1349 14.858 21.206 14.3182 21.206ZM15.1847 19.1179C15.6297 19.1179 16.0227 19.0303 16.3636 18.8551C16.7045 18.6752 16.9721 18.4337 17.1662 18.1307C17.3603 17.8277 17.4574 17.4844 17.4574 17.1009V15.9432C17.3627 16.0047 17.2325 16.0616 17.0668 16.1136C16.9058 16.161 16.7235 16.206 16.5199 16.2486C16.3163 16.2865 16.1127 16.322 15.9091 16.3551C15.7055 16.3835 15.5208 16.4096 15.3551 16.4332C15 16.4853 14.6899 16.5682 14.4247 16.6818C14.1596 16.7955 13.9536 16.9493 13.8068 17.1435C13.66 17.3329 13.5866 17.5696 13.5866 17.8537C13.5866 18.2656 13.7358 18.5805 14.0341 18.7983C14.3371 19.0114 14.7206 19.1179 15.1847 19.1179Z" />
</svg>


