<svg width="80" height="80" viewBox="0 0 80 80" fill="currentColor" xmlns="http://www.w3.org/2000/svg">
<path fill-rule="evenodd" clip-rule="evenodd" d="M80.6851 0.904221H0.68512V80.9042L11.9059 80.9042C11.9059 65.0098 24.7908 52.1249 40.6852 52.1249C56.5795 52.1249 69.4644 65.0098 69.4644 80.9042L80.6851 80.9042V0.904221ZM63.4644 80.9042C63.4644 68.3235 53.2658 58.1249 40.6852 58.1249C28.1045 58.1249 17.9059 68.3235 17.9059 80.9042H63.4644ZM29.1981 26.528C29.1981 29.8719 26.4873 32.5827 23.1434 32.5827C19.7996 32.5827 17.0888 29.8719 17.0888 26.528C17.0888 23.1842 19.7996 20.4734 23.1434 20.4734C26.4873 20.4734 29.1981 23.1842 29.1981 26.528ZM59.8173 32.5827C63.1611 32.5827 65.8719 29.8719 65.8719 26.528C65.8719 23.1842 63.1611 20.4734 59.8173 20.4734C56.4734 20.4734 53.7626 23.1842 53.7626 26.528C53.7626 29.8719 56.4734 32.5827 59.8173 32.5827Z" fill="currentColor"/>
</svg>



